<svg width="146" height="150" viewBox="0 0 146 150" fill="none" xmlns="http://www.w3.org/2000/svg">
<path d="M85.5397 15.8918C85.9848 11.9292 89.6453 9.1383 93.5844 9.75833L102.902 11.2251C106.841 11.8451 109.468 15.6255 108.674 19.5333L83.6049 142.956C82.9506 146.177 79.8767 148.312 76.6299 147.801C73.383 147.29 71.1137 144.314 71.4806 141.047L85.5397 15.8918Z" fill="#F18E2B"/>
<path d="M113.337 67.3816C112.815 69.3871 110.847 70.6611 108.803 70.3171L25.4973 56.2959C24.2746 56.0901 23.2165 55.329 22.6326 54.2353L9.62101 29.8648C8.14783 27.1056 9.04149 23.6776 11.6742 21.9887L34.9275 7.07217C35.9711 6.40274 37.2661 6.25506 38.4336 6.67236L117.982 35.1055C119.934 35.8031 121.029 37.8757 120.507 39.8812L113.337 67.3816Z" fill="#F18E2B"/>
<path d="M64.3513 80.4432C64.3612 78.3833 65.9338 76.6678 67.9851 76.4792L126.398 71.1097C127.706 70.9894 128.99 71.5193 129.833 72.5273L143.239 88.5627C144.49 90.0589 144.48 92.2392 143.215 93.7233L129.655 109.629C128.803 110.629 127.514 111.147 126.207 111.014L67.8479 105.085C65.7986 104.876 64.2424 103.146 64.2523 101.086L64.3513 80.4432Z" fill="#F18E2B"/>
<circle cx="57.5" cy="28.9995" r="13" fill="white"/>
<circle cx="93.5" cy="28.9995" r="13" fill="white"/>
<circle cx="64" cy="24.4995" r="6.5" fill="#3B3B3B"/>
<circle cx="100" cy="24.4995" r="6.5" fill="#3B3B3B"/>
<path d="M59.5 12.9995C60.6271 11.4903 63.805 9.37732 67.5 12.9995" stroke="#3B3B3B" stroke-width="3" stroke-linecap="round"/>
<path d="M95.5 12.9995C96.6271 11.4903 99.805 9.37732 103.5 12.9995" stroke="#3B3B3B" stroke-width="3" stroke-linecap="round"/>
</svg>
