<svg width="77" height="19" viewBox="0 0 77 19" fill="none" xmlns="http://www.w3.org/2000/svg">
<path d="M1.82812 9.58594C1.32812 9.61719 1.03906 9.4375 0.960938 9.04688C0.898438 8.65625 1.0625 8.36719 1.45312 8.17969C2.26562 8.05469 3.13281 7.85938 4.05469 7.59375C4.99219 7.3125 5.77344 7.03906 6.39844 6.77344C7.39844 6.33594 8.1875 5.77344 8.76562 5.08594C9.34375 4.39844 9.625 3.875 9.60938 3.51562C9.57812 3.34375 9.53125 3.23438 9.46875 3.1875C9.40625 3.14062 9.3125 3.11719 9.1875 3.11719C8.04688 3.25781 6.66406 3.28906 5.03906 3.21094L3.1875 3.1875C2.85938 3.1875 2.61719 3.14062 2.46094 3.04688C2.30469 2.9375 2.22656 2.67969 2.22656 2.27344C2.27344 1.80469 2.59375 1.57031 3.1875 1.57031C3.8125 1.61719 4.42188 1.64062 5.01562 1.64062C6.625 1.71875 8.08594 1.6875 9.39844 1.54688C9.94531 1.53125 10.3828 1.60156 10.7109 1.75781C11.0547 1.89844 11.2656 2.26562 11.3438 2.85938C11.3438 3.29688 11.2891 3.6875 11.1797 4.03125C11.1172 4.70312 10.6719 5.49219 9.84375 6.39844C9.01562 7.30469 8.05469 7.96094 6.96094 8.36719C6.02344 8.75781 5.07812 9.05469 4.125 9.25781C3.17188 9.44531 2.40625 9.55469 1.82812 9.58594ZM14.4375 8.71875C14.4062 7.59375 14.3672 6.67969 14.3203 5.97656C14.2891 5.25781 14.2734 3.89844 14.2734 1.89844C14.3359 1.49219 14.4141 1.24219 14.5078 1.14844C14.6172 1.05469 14.7812 0.992188 15 0.960938C15.4688 0.929688 15.7891 1.20312 15.9609 1.78125C15.9297 2.53125 15.9141 3.20312 15.9141 3.79688C16.5703 3.85938 17.25 3.90625 17.9531 3.9375C18.5625 4.03125 18.8438 4.30469 18.7969 4.75781C18.7656 5.30469 18.4609 5.53125 17.8828 5.4375C17.1016 5.39062 16.4453 5.35156 15.9141 5.32031C15.9297 5.46094 15.9375 5.60156 15.9375 5.74219C16 6.60156 16.0625 7.5 16.125 8.4375C16.2344 9.15625 16.0078 9.55469 15.4453 9.63281C14.8828 9.66406 14.5469 9.35938 14.4375 8.71875ZM3.42188 10.6406C5.76562 10.5469 7.60938 10.4609 8.95312 10.3828C10.2969 10.2891 11.6875 10.2578 13.125 10.2891C14.4062 10.2891 15.3203 10.375 15.8672 10.5469C16.4297 10.7188 16.7188 11.1875 16.7344 11.9531C16.7188 12.5 16.7188 13.0469 16.7344 13.5938C16.7656 14.0781 16.5781 14.4375 16.1719 14.6719C15.7812 14.9062 15.2578 15.0078 14.6016 14.9766L12.0469 14.9531C10.375 15.0469 9.125 15.1328 8.29688 15.2109C7.46875 15.2891 6.28125 15.3906 4.73438 15.5156C4.39062 15.5469 4.13281 15.6016 3.96094 15.6797C3.78906 15.7578 3.70312 15.9688 3.70312 16.3125V16.7812C3.70312 17.0312 3.875 17.1484 4.21875 17.1328C5.21875 17.0859 6.24219 16.9922 7.28906 16.8516C8.33594 16.6953 9.55469 16.625 10.9453 16.6406C11.9297 16.6406 12.8203 16.6328 13.6172 16.6172C14.4141 16.5859 15.3672 16.6406 16.4766 16.7812C16.9609 16.9062 17.2031 17.1875 17.2031 17.625C17.2031 18.1562 16.875 18.4219 16.2188 18.4219C15.4531 18.3438 14.5938 18.2969 13.6406 18.2812C12.6875 18.2656 11.7891 18.2578 10.9453 18.2578C9.69531 18.2578 8.60938 18.3359 7.6875 18.4922C6.76562 18.6484 5.6875 18.7422 4.45312 18.7734C3.45312 18.8047 2.78906 18.6641 2.46094 18.3516C2.13281 18.0391 1.96094 17.6172 1.94531 17.0859C1.96094 16.7266 1.96875 16.3125 1.96875 15.8438C1.98438 15.2344 2.17188 14.8047 2.53125 14.5547C2.90625 14.3047 3.33594 14.1328 3.82031 14.0391C5.36719 13.8203 6.97656 13.6562 8.64844 13.5469C10.3359 13.4219 11.9375 13.3516 13.4531 13.3359C13.9531 13.3516 14.3438 13.3438 14.625 13.3125C14.9062 13.2656 15.0469 13.1406 15.0469 12.9375V12.3281C15.0469 12.1094 14.9922 11.9844 14.8828 11.9531C14.7891 11.9062 14.5312 11.8828 14.1094 11.8828C12.5312 11.8672 10.9688 11.8906 9.42188 11.9531C7.89062 12.0156 5.83594 12.125 3.25781 12.2812C2.75781 12.2812 2.50781 12.0234 2.50781 11.5078C2.50781 11.2109 2.57031 11.0078 2.69531 10.8984C2.82031 10.7891 3.0625 10.7031 3.42188 10.6406ZM20.6372 3.02344C22.6372 2.91406 24.2544 2.86719 25.4888 2.88281C26.7231 2.88281 27.5903 2.88281 28.0903 2.88281C28.9653 2.88281 29.5278 2.98438 29.7778 3.1875C30.0278 3.39062 30.2388 3.84375 30.4106 4.54688C30.4888 4.95312 30.5356 5.46875 30.5513 6.09375C30.5513 6.64062 30.4966 7.07031 30.3872 7.38281C30.1841 7.96094 29.8716 8.35156 29.4497 8.55469C29.0278 8.74219 28.3481 8.82812 27.4106 8.8125C26.1138 8.85938 25.2075 8.90625 24.6919 8.95312C24.1763 9 23.52 9.04688 22.7231 9.09375C22.27 9.125 21.9731 9.20312 21.8325 9.32812C21.7075 9.45312 21.645 9.70312 21.645 10.0781C21.5981 12.0781 21.5981 13.4609 21.645 14.2266C21.6763 14.5859 21.8716 14.7422 22.2309 14.6953C22.9966 14.6328 23.6294 14.5859 24.1294 14.5547C24.6294 14.5234 25.2388 14.4922 25.9575 14.4609C26.8325 14.4297 27.5825 14.4141 28.2075 14.4141C28.8325 14.3984 29.4653 14.4297 30.1059 14.5078C30.5122 14.5859 30.7231 14.8594 30.7388 15.3281C30.6763 15.875 30.3716 16.1172 29.8247 16.0547H25.9575C25.27 16.0391 24.6372 16.0703 24.0591 16.1484C23.4809 16.2109 22.9028 16.2578 22.3247 16.2891C21.3247 16.3203 20.6684 16.1875 20.3559 15.8906C20.0591 15.5781 19.9028 15.1562 19.8872 14.625C19.8559 13.3281 19.8481 11.6328 19.8638 9.53906C19.8794 8.92969 20.02 8.48438 20.2856 8.20312C20.5669 7.92188 21.0278 7.6875 21.6684 7.5C23.0591 7.375 24.1138 7.30469 24.8325 7.28906C25.5669 7.27344 26.3716 7.25 27.2466 7.21875C27.9966 7.1875 28.4575 7.10156 28.6294 6.96094C28.8169 6.80469 28.895 6.50781 28.8638 6.07031C28.8169 5.78906 28.77 5.49219 28.7231 5.17969C28.6763 5.02344 28.6059 4.89062 28.5122 4.78125C28.4184 4.65625 28.2231 4.59375 27.9263 4.59375C26.3481 4.57812 25.3091 4.54688 24.8091 4.5C24.3247 4.45312 22.8872 4.51562 20.4966 4.6875C19.9966 4.6875 19.7466 4.42969 19.7466 3.91406C19.7466 3.61719 19.8013 3.41406 19.9106 3.30469C20.0356 3.17969 20.2778 3.08594 20.6372 3.02344ZM36.3638 16.4531C36.3013 14.9375 36.2778 13.4141 36.2934 11.8828C36.3247 10.3516 36.3403 9.49219 36.3403 9.30469C35.9184 9.27344 35.5122 9.24219 35.1216 9.21094C34.7309 9.17969 34.3403 9.15625 33.9497 9.14062C33.9341 10.0938 33.9028 11.0234 33.8559 11.9297C33.7466 13.9922 33.6997 15.5312 33.7153 16.5469C33.6528 17.1406 33.3481 17.4219 32.8013 17.3906C32.1919 17.2812 31.9106 16.9453 31.9575 16.3828C31.9888 15.5078 32.0591 14.0781 32.1684 12.0938C32.2778 10.1094 32.3091 7.78906 32.2622 5.13281C32.2934 4.75781 32.2466 4.3125 32.1216 3.79688C32.1059 3.48438 32.145 3.23438 32.2388 3.04688C32.3325 2.84375 32.52 2.74219 32.8013 2.74219C32.9106 2.72656 33.1059 2.75781 33.3872 2.83594C33.6841 2.89844 33.8403 3.1875 33.8559 3.70312C33.9184 4.28125 33.9575 4.76562 33.9731 5.15625V7.59375C34.4263 7.60938 34.8403 7.64062 35.2153 7.6875C35.5903 7.71875 35.9653 7.74219 36.3403 7.75781C36.3559 5.83594 36.3403 4.13281 36.2934 2.64844C36.3559 2.24219 36.4419 2.00781 36.5513 1.94531C36.6606 1.86719 36.8247 1.8125 37.0434 1.78125C37.5122 1.73438 37.8559 1.96094 38.0747 2.46094C38.0278 4.21094 37.9809 6.66406 37.9341 9.82031C37.8872 12.9609 37.9341 15.2031 38.0747 16.5469C38.0903 17.0469 37.8325 17.3359 37.3013 17.4141C36.7388 17.4766 36.4263 17.1562 36.3638 16.4531ZM54.6338 4.125C55.0556 4.15625 55.54 4.21094 56.0869 4.28906C56.665 4.39844 56.9306 4.67188 56.8838 5.10938C56.8213 5.65625 56.5088 5.86719 55.9463 5.74219C55.4619 5.67969 55.0244 5.625 54.6338 5.57812C54.6494 5.8125 54.6572 6.03125 54.6572 6.23438C54.6728 7.21875 54.7353 8.24219 54.8447 9.30469C54.9541 9.77344 54.7275 10.0703 54.165 10.1953C53.665 10.2734 53.3681 9.96875 53.2744 9.28125C53.1806 8.70312 53.1259 7.875 53.1103 6.79688C53.1103 5.70312 53.0791 4.15625 53.0166 2.15625C53.0791 1.75 53.1494 1.51562 53.2275 1.45312C53.3056 1.375 53.4541 1.3125 53.6728 1.26562C54.2978 1.25 54.6181 1.53906 54.6338 2.13281V4.125ZM43.5009 3.21094C43.1728 3.22656 43.0322 3.41406 43.0791 3.77344C43.0322 5.41406 43.0166 6.55469 43.0322 7.19531C43.0166 7.47656 43.0478 7.65625 43.1259 7.73438C43.2197 7.8125 43.3994 7.83594 43.665 7.80469C44.7431 7.77344 45.5791 7.75781 46.1728 7.75781C46.7666 7.74219 47.4463 7.73438 48.2119 7.73438C48.54 7.75 48.6963 7.57812 48.6806 7.21875C48.6963 5.85938 48.6884 4.77344 48.6572 3.96094C48.6572 3.64844 48.6025 3.44531 48.4931 3.35156C48.3994 3.24219 48.2119 3.1875 47.9306 3.1875C47.0244 3.21875 46.2744 3.21875 45.6806 3.1875C45.0869 3.14062 44.3603 3.14844 43.5009 3.21094ZM43.1025 9.375C42.6963 9.35938 42.3838 9.32812 42.165 9.28125C41.9463 9.23438 41.7431 9.07031 41.5556 8.78906C41.4463 8.50781 41.3838 8.17969 41.3681 7.80469C41.3681 7.42969 41.3681 6.86719 41.3681 6.11719C41.3525 4.82031 41.3603 3.84375 41.3916 3.1875C41.3916 2.53125 41.5947 2.10156 42.0009 1.89844C42.4228 1.69531 42.9072 1.59375 43.4541 1.59375C44.3603 1.60938 45.1806 1.60938 45.915 1.59375C46.665 1.57812 47.415 1.57812 48.165 1.59375C48.9306 1.60938 49.4697 1.78125 49.7822 2.10938C50.0947 2.42188 50.2666 3.03125 50.2978 3.9375L50.3681 7.17188C50.3525 7.57812 50.2978 7.89062 50.2041 8.10938C50.1259 8.3125 49.9931 8.52344 49.8056 8.74219C49.5244 9.08594 49.0556 9.25781 48.3994 9.25781C47.3994 9.25781 46.4931 9.26562 45.6806 9.28125C44.8681 9.29688 44.0088 9.32812 43.1025 9.375ZM42.2588 11.3438C43.1963 11.2656 44.0556 11.2031 44.8369 11.1562C45.6338 11.0938 46.4072 11.0625 47.1572 11.0625C47.9228 11.0312 48.665 11.0078 49.3838 10.9922C50.1025 10.9609 50.8838 10.9609 51.7275 10.9922C52.8994 10.9922 53.665 11.0625 54.0244 11.2031C54.3994 11.3438 54.6416 11.6328 54.7509 12.0703C54.8134 12.3516 54.8525 12.625 54.8681 12.8906C54.8994 13.1406 54.9228 13.4219 54.9384 13.7344C54.9541 14.3906 54.7353 14.8281 54.2822 15.0469C53.8447 15.2656 53.2822 15.3828 52.5947 15.3984L49.8291 15.4922C47.2978 15.5703 46.0009 15.6094 45.9384 15.6094C45.8759 15.5938 45.1416 15.6328 43.7353 15.7266C43.2978 15.8203 43.0166 15.9062 42.8916 15.9844C42.7822 16.0625 42.7275 16.1875 42.7275 16.3594L42.6338 16.8516C42.6338 17.0859 42.6963 17.2266 42.8213 17.2734C42.9463 17.3203 43.1025 17.3203 43.29 17.2734C43.8056 17.1797 44.8213 17.0391 46.3369 16.8516L50.0166 16.6641C51.0009 16.6641 51.9697 16.6562 52.9228 16.6406C53.8916 16.625 54.9306 16.6875 56.04 16.8281C56.5244 16.9375 56.7588 17.2109 56.7431 17.6484C56.6806 18.2578 56.3525 18.5234 55.7588 18.4453C54.9931 18.3672 54.0556 18.3203 52.9463 18.3047C51.8369 18.2891 50.8603 18.2812 50.0166 18.2812L46.2197 18.5156C45.6259 18.5781 45.0869 18.6406 44.6025 18.7031C44.1338 18.7656 43.6494 18.8203 43.1494 18.8672C42.54 18.8672 42.1103 18.8516 41.8603 18.8203C41.5166 18.7578 41.2666 18.6172 41.1103 18.3984C40.9697 18.1797 40.8916 17.7969 40.8759 17.25C40.9072 16.8281 40.9541 16.3984 41.0166 15.9609C41.0634 15.5391 41.2431 15.1797 41.5556 14.8828C41.8838 14.5703 42.4619 14.3438 43.29 14.2031C44.9931 14.0781 46.5713 14.0078 48.0244 13.9922C49.4931 13.9766 50.7197 13.9375 51.7041 13.875C52.2822 13.8906 52.6806 13.8594 52.8994 13.7812C53.1181 13.7031 53.2041 13.5156 53.1572 13.2188L53.1103 13.0312C53.0791 12.8125 52.9697 12.6641 52.7822 12.5859C52.5947 12.4922 52.29 12.4453 51.8681 12.4453C50.6181 12.4609 49.6963 12.4844 49.1025 12.5156C48.5088 12.5312 47.6494 12.5703 46.5244 12.6328C45.915 12.6797 45.1728 12.7266 44.2978 12.7734C43.4228 12.8203 42.6416 12.8984 41.9541 13.0078C41.4541 13.0078 41.1884 12.7578 41.1572 12.2578C41.1572 11.9609 41.2353 11.75 41.3916 11.625C41.5634 11.5 41.8525 11.4062 42.2588 11.3438ZM58.7709 3.02344C60.7709 2.91406 62.3881 2.86719 63.6225 2.88281C64.8569 2.88281 65.7241 2.88281 66.2241 2.88281C67.0991 2.88281 67.6616 2.98438 67.9116 3.1875C68.1616 3.39062 68.3725 3.84375 68.5444 4.54688C68.6225 4.95312 68.6694 5.46875 68.685 6.09375C68.685 6.64062 68.6303 7.07031 68.5209 7.38281C68.3178 7.96094 68.0053 8.35156 67.5834 8.55469C67.1616 8.74219 66.4819 8.82812 65.5444 8.8125C64.2475 8.85938 63.3413 8.90625 62.8256 8.95312C62.31 9 61.6538 9.04688 60.8569 9.09375C60.4038 9.125 60.1069 9.20312 59.9663 9.32812C59.8413 9.45312 59.7788 9.70312 59.7788 10.0781C59.7319 12.0781 59.7319 13.4609 59.7788 14.2266C59.81 14.5859 60.0053 14.7422 60.3647 14.6953C61.1303 14.6328 61.7631 14.5859 62.2631 14.5547C62.7631 14.5234 63.3725 14.4922 64.0913 14.4609C64.9663 14.4297 65.7163 14.4141 66.3413 14.4141C66.9663 14.3984 67.5991 14.4297 68.2397 14.5078C68.6459 14.5859 68.8569 14.8594 68.8725 15.3281C68.81 15.875 68.5053 16.1172 67.9584 16.0547H64.0913C63.4038 16.0391 62.7709 16.0703 62.1928 16.1484C61.6147 16.2109 61.0366 16.2578 60.4584 16.2891C59.4584 16.3203 58.8022 16.1875 58.4897 15.8906C58.1928 15.5781 58.0366 15.1562 58.0209 14.625C57.9897 13.3281 57.9819 11.6328 57.9975 9.53906C58.0131 8.92969 58.1538 8.48438 58.4194 8.20312C58.7006 7.92188 59.1616 7.6875 59.8022 7.5C61.1928 7.375 62.2475 7.30469 62.9663 7.28906C63.7006 7.27344 64.5053 7.25 65.3803 7.21875C66.1303 7.1875 66.5913 7.10156 66.7631 6.96094C66.9506 6.80469 67.0288 6.50781 66.9975 6.07031C66.9506 5.78906 66.9038 5.49219 66.8569 5.17969C66.81 5.02344 66.7397 4.89062 66.6459 4.78125C66.5522 4.65625 66.3569 4.59375 66.06 4.59375C64.4819 4.57812 63.4428 4.54688 62.9428 4.5C62.4584 4.45312 61.0209 4.51562 58.6303 4.6875C58.1303 4.6875 57.8803 4.42969 57.8803 3.91406C57.8803 3.61719 57.935 3.41406 58.0444 3.30469C58.1694 3.17969 58.4116 3.08594 58.7709 3.02344ZM74.4975 16.4531C74.435 14.9375 74.4116 13.4141 74.4272 11.8828C74.4584 10.3516 74.4741 9.49219 74.4741 9.30469C74.0522 9.27344 73.6459 9.24219 73.2553 9.21094C72.8647 9.17969 72.4741 9.15625 72.0834 9.14062C72.0678 10.0938 72.0366 11.0234 71.9897 11.9297C71.8803 13.9922 71.8334 15.5312 71.8491 16.5469C71.7866 17.1406 71.4819 17.4219 70.935 17.3906C70.3256 17.2812 70.0444 16.9453 70.0913 16.3828C70.1225 15.5078 70.1928 14.0781 70.3022 12.0938C70.4116 10.1094 70.4428 7.78906 70.3959 5.13281C70.4272 4.75781 70.3803 4.3125 70.2553 3.79688C70.2397 3.48438 70.2788 3.23438 70.3725 3.04688C70.4663 2.84375 70.6538 2.74219 70.935 2.74219C71.0444 2.72656 71.2397 2.75781 71.5209 2.83594C71.8178 2.89844 71.9741 3.1875 71.9897 3.70312C72.0522 4.28125 72.0913 4.76562 72.1069 5.15625V7.59375C72.56 7.60938 72.9741 7.64062 73.3491 7.6875C73.7241 7.71875 74.0991 7.74219 74.4741 7.75781C74.4897 5.83594 74.4741 4.13281 74.4272 2.64844C74.4897 2.24219 74.5756 2.00781 74.685 1.94531C74.7944 1.86719 74.9584 1.8125 75.1772 1.78125C75.6459 1.73438 75.9897 1.96094 76.2084 2.46094C76.1616 4.21094 76.1147 6.66406 76.0678 9.82031C76.0209 12.9609 76.0678 15.2031 76.2084 16.5469C76.2241 17.0469 75.9663 17.3359 75.435 17.4141C74.8725 17.4766 74.56 17.1562 74.4975 16.4531Z" fill="#E37C14"/>
</svg>
