<svg width="20" height="20" viewBox="0 0 20 20" fill="none" xmlns="http://www.w3.org/2000/svg">
<path d="M10 1.25049C11.9891 1.25049 13.8968 2.07331 15.3033 3.53793C16.7098 5.00255 17.5 6.98901 17.5 9.0603C17.5 11.7278 16.1033 13.9111 14.6317 15.4774C13.8964 16.2515 13.0941 16.9533 12.235 17.5739L11.88 17.8255L11.7133 17.9409L11.3992 18.1492L11.1192 18.3271L10.7725 18.5371C10.5372 18.6769 10.2709 18.7505 10 18.7505C9.72906 18.7505 9.4628 18.6769 9.2275 18.5371L8.88083 18.3271L8.4475 18.0494L8.2875 17.9409L7.94583 17.704C7.01903 17.0511 6.15575 16.3053 5.36833 15.4774C3.89667 13.9102 2.5 11.7278 2.5 9.0603C2.5 6.98901 3.29018 5.00255 4.6967 3.53793C6.10322 2.07331 8.01088 1.25049 10 1.25049ZM10 6.45703C9.6717 6.45703 9.34661 6.52436 9.04329 6.65519C8.73998 6.78602 8.46438 6.97777 8.23223 7.21951C8.00009 7.46125 7.81594 7.74823 7.6903 8.06407C7.56466 8.37991 7.5 8.71843 7.5 9.0603C7.5 9.40217 7.56466 9.74068 7.6903 10.0565C7.81594 10.3724 8.00009 10.6594 8.23223 10.9011C8.46438 11.1428 8.73998 11.3346 9.04329 11.4654C9.34661 11.5962 9.6717 11.6636 10 11.6636C10.663 11.6636 11.2989 11.3893 11.7678 10.9011C12.2366 10.4129 12.5 9.75073 12.5 9.0603C12.5 8.36987 12.2366 7.70772 11.7678 7.21951C11.2989 6.7313 10.663 6.45703 10 6.45703Z" fill="#DDDDDD"/>
</svg>
