<svg width="120" height="176" viewBox="0 0 120 176" fill="none" xmlns="http://www.w3.org/2000/svg">
<g filter="url(#filter0_d_175_1623)">
<circle cx="60" cy="60" r="45" fill="white" fill-opacity="0.33"/>
<circle cx="38" cy="118" r="3" fill="white"/>
<circle cx="60" cy="118" r="3" fill="white"/>
<circle cx="82" cy="118" r="3" fill="white"/>
<path d="M63.8952 39.1231C64.0668 37.5962 65.4772 36.5208 66.9951 36.7597L70.5855 37.3249C72.1034 37.5638 73.1153 39.0205 72.8094 40.5262L63.1497 88.0841C62.8976 89.3253 61.7132 90.1481 60.4621 89.9512C59.2109 89.7542 58.3365 88.6074 58.4779 87.3488L63.8952 39.1231Z" fill="white"/>
<path d="M74.6065 58.9641C74.405 59.7369 73.6467 60.2278 72.8592 60.0952L40.7593 54.6925C40.2882 54.6132 39.8805 54.3199 39.6555 53.8985L34.6418 44.5079C34.0742 43.4447 34.4185 42.1238 35.433 41.473L44.3931 35.7253C44.7952 35.4673 45.2942 35.4104 45.7441 35.5712L76.3962 46.5273C77.1482 46.796 77.5704 47.5947 77.3689 48.3675L74.6065 58.9641Z" fill="white"/>
<path d="M56.0561 63.7889C56.0599 62.9951 56.6658 62.3341 57.4563 62.2614L79.9643 60.1924C80.4685 60.1461 80.9632 60.3502 81.2879 60.7386L86.4538 66.9175C86.9358 67.4941 86.9317 68.3342 86.4442 68.906L81.2194 75.0351C80.8909 75.4204 80.3943 75.6198 79.8906 75.5686L57.4034 73.2838C56.6137 73.2036 56.0141 72.5368 56.0179 71.743L56.0561 63.7889Z" fill="white"/>
<path d="M31.1219 147.391V151.594H33.2V152.625H31.1219V156.703H29.8875V147.391H31.1219ZM20.2156 155.281C21.325 155.281 22.6219 155.281 23.9813 155.234V154.219C22.3641 154.078 21.325 153.32 21.325 152.172C21.325 150.906 22.6219 150.125 24.575 150.125C26.5438 150.125 27.825 150.906 27.8406 152.172C27.825 153.312 26.8094 154.07 25.2 154.219V155.188C26.4969 155.125 27.8094 155.023 29.0281 154.844L29.1375 155.734C26.1219 156.266 22.7938 156.281 20.3563 156.281L20.2156 155.281ZM31.1219 157.391V161.266H29.8875V158.375H21.9188V157.391H31.1219ZM28.6063 148.656V149.594H20.5594V148.656H23.9813V147.266H25.2V148.656H28.6063ZM24.575 151C23.2938 150.984 22.4969 151.438 22.4969 152.172C22.4969 152.891 23.2938 153.391 24.575 153.375C25.8563 153.391 26.6688 152.891 26.6688 152.172C26.6688 151.438 25.8563 150.984 24.575 151ZM45.095 147.391V157.547H43.8763V147.391H45.095ZM45.5325 159.938V160.969H36.1263V156.516H37.345V159.938H45.5325ZM37.595 148.359C39.6731 148.359 41.2356 149.766 41.2356 151.766C41.2356 153.797 39.6731 155.188 37.595 155.188C35.5169 155.188 33.9544 153.797 33.9544 151.766C33.9544 149.766 35.5169 148.359 37.595 148.359ZM37.595 149.438C36.1888 149.438 35.1419 150.406 35.1575 151.766C35.1419 153.156 36.1888 154.109 37.595 154.109C38.97 154.109 40.0325 153.156 40.0325 151.766C40.0325 150.406 38.97 149.438 37.595 149.438ZM59.6306 153.875V154.891H53.8963V156.375C56.5213 156.484 58.0681 157.344 58.0838 158.812C58.0681 160.359 56.2869 161.234 53.3025 161.234C50.2869 161.234 48.5056 160.359 48.5056 158.812C48.5056 157.344 50.0447 156.484 52.6931 156.375V154.891H46.9744V153.875H59.6306ZM53.3025 157.312C51.0681 157.328 49.74 157.875 49.7556 158.812C49.74 159.734 51.0681 160.281 53.3025 160.281C55.5056 160.281 56.8494 159.734 56.8494 158.812C56.8494 157.875 55.5056 157.328 53.3025 157.312ZM58.5056 148.031V149.031H54.0994C54.1775 150.594 56.4744 151.805 58.9275 152.062L58.4744 153.031C56.2009 152.758 54.0681 151.742 53.3025 150.188C52.5447 151.742 50.4197 152.758 48.1306 153.031L47.6931 152.062C50.0994 151.805 52.4119 150.594 52.5056 149.031H48.1306V148.031H58.5056ZM71.7913 147.375V154.828H70.5725V147.375H71.7913ZM64.01 155.531V157.219H70.5725V155.531H71.7913V161.078H62.7913V155.531H64.01ZM64.01 160.078H70.5725V158.203H64.01V160.078ZM64.2913 148.062C66.4006 148.047 67.9319 149.344 67.9319 151.25C67.9319 153.141 66.4006 154.438 64.2913 154.438C62.1819 154.438 60.6506 153.141 60.6506 151.25C60.6506 149.344 62.1819 148.047 64.2913 148.062ZM64.2913 149.094C62.8694 149.078 61.8381 149.984 61.8538 151.25C61.8381 152.516 62.8694 153.422 64.2913 153.422C65.6975 153.422 66.7288 152.516 66.7288 151.25C66.7288 149.984 65.6975 149.078 64.2913 149.094ZM85.1238 147.375V161.266H83.905V147.375H85.1238ZM75.78 148.75V156.625C77.8972 156.617 80.0925 156.445 82.4206 155.953L82.5925 157C80.1238 157.516 77.9206 157.688 75.7019 157.688H74.5769V148.75H75.78ZM97.7688 147.375V152.875H100.097V153.906H97.7688V161.297H96.55V147.375H97.7688ZM94.1125 148.734V149.75H88.8469V156.781C91.3625 156.781 93.1438 156.664 95.2063 156.281L95.3625 157.344C93.1906 157.734 91.3625 157.812 88.7219 157.812H87.6281V148.734H94.1125Z" fill="white"/>
</g>
<defs>
<filter id="filter0_d_175_1623" x="0.6" y="0.6" width="118.8" height="180.8" filterUnits="userSpaceOnUse" color-interpolation-filters="sRGB">
<feFlood flood-opacity="0" result="BackgroundImageFix"/>
<feColorMatrix in="SourceAlpha" type="matrix" values="0 0 0 0 0 0 0 0 0 0 0 0 0 0 0 0 0 0 127 0" result="hardAlpha"/>
<feOffset/>
<feGaussianBlur stdDeviation="7.2"/>
<feComposite in2="hardAlpha" operator="out"/>
<feColorMatrix type="matrix" values="0 0 0 0 0 0 0 0 0 0 0 0 0 0 0 0 0 0 0.5 0"/>
<feBlend mode="normal" in2="BackgroundImageFix" result="effect1_dropShadow_175_1623"/>
<feBlend mode="normal" in="SourceGraphic" in2="effect1_dropShadow_175_1623" result="shape"/>
</filter>
</defs>
</svg>
