<svg width="16" height="16" viewBox="0 0 16 16" fill="none" xmlns="http://www.w3.org/2000/svg">
<path d="M1.34488 13.6096L1.78288 10.6101C1.80957 10.4141 1.89905 10.2317 2.03904 10.0912L10.5256 1.6036C10.6354 1.4923 10.7722 1.41119 10.9226 1.36814C11.073 1.32509 11.232 1.32154 11.3843 1.35784C12.1633 1.57294 12.8695 1.99484 13.4278 2.5787C14.0107 3.14009 14.4302 3.84898 14.6415 4.62979C14.6778 4.78181 14.6743 4.94062 14.6312 5.09087C14.5881 5.24111 14.5069 5.3777 14.3954 5.48742L5.8995 13.9642C5.75859 14.1037 5.57588 14.1933 5.37924 14.2193L2.37674 14.6568C2.23491 14.6775 2.09019 14.6645 1.95434 14.6188C1.81848 14.5732 1.69531 14.4962 1.59481 14.3941C1.4943 14.2921 1.4193 14.1678 1.37587 14.0314C1.33245 13.8949 1.32183 13.7502 1.34488 13.6089M8.92005 3.21795L12.7899 7.08303" stroke="#9B9B9B" stroke-width="1.5" stroke-linecap="round" stroke-linejoin="round"/>
</svg>
