<svg width="22" height="22" viewBox="0 0 22 22" fill="none" xmlns="http://www.w3.org/2000/svg">
<circle cx="11.0001" cy="11.0001" r="3.69444" stroke="#111111" stroke-width="1.5"/>
<path d="M14.0496 4.13599C14.5545 4.35665 15.0299 4.63047 15.4698 4.9502L18.4763 3.83447L20.9988 8.16431L18.5219 10.1846C18.5511 10.4525 18.5674 10.7244 18.5674 11C18.5674 11.2743 18.5508 11.5451 18.5219 11.8118L21 13.8345L18.4775 18.1643L15.4722 17.0486C15.0319 17.3689 14.5552 17.6418 14.0496 17.8628L13.5225 21H8.47752L7.94913 17.8628C7.44425 17.642 6.96878 17.3684 6.52901 17.0486L3.52371 18.1655L1.00123 13.8357L3.47691 11.8142C3.44777 11.5468 3.43257 11.2751 3.43257 11C3.43257 10.7253 3.44786 10.4541 3.47691 10.187L1 8.16553L3.52248 3.83569L6.52654 4.9502C6.96673 4.62994 7.4437 4.35697 7.94913 4.13599L8.47752 1H13.5225L14.0496 4.13599Z" stroke="#111111" stroke-width="1.5"/>
</svg>
