<svg width="24" height="24" viewBox="0 0 24 24" fill="none" xmlns="http://www.w3.org/2000/svg">
<path fill-rule="evenodd" clip-rule="evenodd" d="M12 21C16.9707 21 21 16.9707 21 12C21 7.0293 16.9707 3 12 3C7.0293 3 3 7.0293 3 12C3 16.9707 7.0293 21 12 21ZM15.6594 8.3406C15.7858 8.46716 15.8568 8.63872 15.8568 8.8176C15.8568 8.99648 15.7858 9.16804 15.6594 9.2946L12.954 12L15.6585 14.7045C15.7777 14.8325 15.8426 15.0017 15.8396 15.1766C15.8365 15.3514 15.7656 15.5183 15.642 15.642C15.5183 15.7656 15.3514 15.8365 15.1766 15.8396C15.0017 15.8426 14.8325 15.7777 14.7045 15.6585L12 12.9558L9.2955 15.6603C9.2337 15.7266 9.15918 15.7798 9.07638 15.8167C8.99358 15.8536 8.9042 15.8734 8.81357 15.875C8.72294 15.8766 8.63291 15.86 8.54886 15.826C8.46481 15.7921 8.38846 15.7415 8.32437 15.6774C8.26027 15.6133 8.20974 15.537 8.17579 15.4529C8.14184 15.3689 8.12517 15.2789 8.12677 15.1882C8.12837 15.0976 8.1482 15.0082 8.1851 14.9254C8.22199 14.8426 8.27518 14.7681 8.3415 14.7063L11.0442 12L8.3406 9.2955C8.27428 9.2337 8.22109 9.15918 8.1842 9.07638C8.1473 8.99358 8.12747 8.9042 8.12587 8.81357C8.12427 8.72294 8.14094 8.63291 8.17489 8.54886C8.20884 8.46481 8.25937 8.38846 8.32347 8.32437C8.38756 8.26027 8.46391 8.20974 8.54796 8.17579C8.63201 8.14184 8.72204 8.12517 8.81267 8.12677C8.9033 8.12837 8.99268 8.1482 9.07548 8.1851C9.15828 8.22199 9.2328 8.27518 9.2946 8.3415L12 11.0442L14.7045 8.3397C14.8311 8.21329 15.0026 8.14229 15.1815 8.14229C15.3604 8.14229 15.5319 8.21329 15.6585 8.3397" fill="#DDDDDD"/>
</svg>
